<svg enable-background="new 0 0 58 50" height="512" viewBox="0 0 58 50" width="512" xmlns="http://www.w3.org/2000/svg"><path d="m40.128 3.718c-1.656-3.219-6.064-3.737-8.295-.886-1.215 1.554-1.753 3.168-1.753 3.168l-.122.488-1.878 7.512h.92v1h11v-1h.08c1.974-4.442 1.269-7.909.048-10.282z" fill="#ed8a19"/><path d="m8 44v2c0 2.209 1.791 4 4 4h34c2.209 0 4-1.791 4-4v-2z" fill="#afb6bb"/><path d="m34 41h-31v-25c0-1.104.895-2 2-2h29z" fill="#f7e6a1"/><path d="m55 41h-22v-27h20c1.104 0 2 .895 2 2z" fill="#cebe7a"/><path d="m3 30h30v4h-30z" fill="#ed8a19"/><path d="m3 20h30v4h-30z" fill="#ed8a19"/><path d="m33 30h22v4h-22z" fill="#c66e17"/><path d="m33 20h22v4h-22z" fill="#c66e17"/><path d="m52 46h-46c-3.314 0-6-2.686-6-6h58c0 3.314-2.686 6-6 6z" fill="#e7eced"/><path d="m21.16 9.159c.291-.095.597-.159.92-.159.852 0 1.617.359 2.163.929.47-1.685 2.001-2.929 3.837-2.929-3-7-8-7-8-7s-3 5 1 9z" fill="#43b05c"/><path d="m24.081 9c-.367 0-.72-.202-.895-.553l-1-2c-.247-.494-.047-1.095.447-1.342.493-.248 1.095-.047 1.342.447l1 2c.247.494.047 1.095-.447 1.342-.144.072-.297.106-.447.106z" fill="#64cc77"/><circle cx="28.08" cy="10" fill="#dd352e" r="4"/><path d="m24.08 10c0-.373.068-.728.163-1.071-.546-.57-1.311-.929-2.163-.929-1.657 0-3 1.343-3 3s1.343 3 3 3c1.202 0 2.231-.711 2.71-1.731-.446-.645-.71-1.426-.71-2.269z" fill="#b02721"/><g fill="#c5411e"><path d="m35.08 7c-.256 0-.512-.098-.707-.293-.391-.391-.391-1.023 0-1.414l1-1c.39-.391 1.024-.391 1.414 0 .391.391.391 1.023 0 1.414l-1 1c-.195.195-.451.293-.707.293z"/><path d="m36.08 12c-.256 0-.512-.098-.707-.293-.391-.391-.391-1.023 0-1.414l1-1c.39-.391 1.024-.391 1.414 0 .391.391.391 1.023 0 1.414l-1 1c-.195.195-.451.293-.707.293z"/></g></svg>