<svg height="512pt" viewBox="0 -18 512.001 512" width="512pt" xmlns="http://www.w3.org/2000/svg"><path d="m247.761719 115.445312c-6.28125 19.15625-27.148438 29.378907-46.601563 22.835938s-30.128906-27.378906-23.84375-46.53125c6.28125-19.15625 26.378906-27.042969 45.832032-20.5 19.453124 6.546875 30.898437 25.042969 24.613281 44.195312zm0 0" fill="#ff646f"/><path d="m333.386719 107.246094c1.34375 14.394531-8.914063 27.148437-22.921875 28.496094-14.003906 1.34375-26.449219-9.234376-27.800782-23.625-1.347656-14.394532 9.082032-25.394532 23.085938-26.738282 14.007812-1.34375 26.285156 7.476563 27.636719 21.867188zm0 0" fill="#ff4755"/><path d="m449.753906 160.246094c0-21.027344-17.042968-38.074219-38.074218-38.074219h-311.363282c-21.027344 0-38.074218 17.046875-38.074218 38.074219l-.003907 271.152344h387.523438zm0 0" fill="#bb8080"/><path d="m449.753906 160.246094c0-21.027344-17.042968-38.074219-38.074218-38.074219h-31.992188c21.027344 0 38.074219 17.046875 38.074219 38.074219l.007812 271.152344h31.992188zm0 0" fill="#af6c6c"/><path d="m62.238281 266.304688h387.523438v58.746093h-387.523438zm0 0" fill="#fde6bf"/><path d="m417.765625 266.304688h31.992187v58.746093h-31.992187zm0 0" fill="#fdd79b"/><path d="m449.753906 160.246094c0-21.027344-17.042968-38.074219-38.074218-38.074219h-311.363282c-21.027344 0-38.074218 17.046875-38.074218 38.074219v34.640625c12.464843 5.902343 22.835937 17.902343 43.285156 17.902343 27.667968 0 28.792968-21.121093 50.15625-21.121093 21.226562 0 22.679687 21.121093 50.152344 21.121093 27.667968 0 28.792968-21.121093 50.152343-21.121093 21.410157 0 22.476563 21.121093 50.15625 21.121093 27.671875 0 28.792969-21.121093 50.15625-21.121093 21.410157 0 22.476563 21.121093 50.164063 21.121093 21.035156 0 30.710937-12.335937 43.289062-18.144531zm0 0" fill="#855151"/><path d="m449.757812 194.644531-.003906-34.398437c0-21.027344-17.042968-38.074219-38.074218-38.074219h-31.992188c21.027344 0 38.074219 17.042969 38.074219 38.074219v51.222656c13.691406-3.328125 21.914062-12.167969 31.996093-16.824219zm0 0" fill="#704444"/><path d="m488.289062 418.027344h-466.667968c11.3125 30.265625 40.226562 50.324218 72.53125 50.324218h321.605468c32.308594 0 61.222657-20.0625 72.53125-50.324218zm0 0" fill="#a8d3d8"/><path d="m456.796875 418.027344-3.210937 8.59375c-9.382813 25.09375-33.355469 41.730468-60.148438 41.730468h22.320312c32.308594 0 61.222657-20.058593 72.53125-50.324218zm0 0" fill="#8ebac5"/><path d="m489.117188 427.71875h-466.234376c-8.496093 0-15.382812-6.886719-15.382812-15.378906 0-8.496094 6.886719-15.382813 15.382812-15.382813h466.234376c8.496093 0 15.382812 6.886719 15.382812 15.382813 0 8.492187-6.886719 15.378906-15.382812 15.378906zm0 0" fill="#deecf1"/><path d="m489.117188 389.457031h-31.855469l-.003907-229.210937c0-25.128906-20.445312-45.574219-45.574218-45.574219h-71.027344c2.695312-18.722656-9.984375-35.367187-29.378906-36.828125-5.46875-31.394531 7.3125-67.410156 7.445312-67.789062 1.84375-5.082032-2.15625-10.390626-7.527344-10.039063-43.476562 2.78125-77.320312 41.65625-92.367187 62.351563-21.761719-4.222657-41.964844 6.699218-48.640625 27.042968-2.703125 8.238282-2.851562 17.011719-.574219 25.261719h-20.34375c-9.914062 0-9.929687 15 0 15h262.414063c16.855468 0 30.574218 13.714844 30.574218 30.574219v29.851562c-11.304687 6.46875-19.445312 15.191406-35.792968 15.191406-24.320313 0-25.113282-21.121093-50.160156-21.121093-25.074219 0-25.800782 21.121093-50.15625 21.121093-24.316407 0-25.113282-21.121093-50.15625-21.121093-25.070313 0-25.800782 21.121093-50.152344 21.121093-24.160156 0-25.246094-21.121093-50.15625-21.121093-25.070313 0-25.800782 21.121093-50.15625 21.121093-15.867188 0-24.492188-8.464843-35.78125-14.925781v-30.117187c0-16.859375 13.714844-30.574219 30.574218-30.574219h18.957032c9.917968 0 9.929687-15 0-15h-18.957032c-25.128906 0-45.574218 20.445313-45.574218 45.574219l-.007813 229.210937h-31.855469c-12.617187 0-22.882812 10.265625-22.882812 22.882813 0 12.214844 9.621094 22.222656 21.683594 22.847656 15.367187 25.195312 42.734375 40.660156 72.472656 40.660156h321.601562c29.722657 0 57.082032-15.453125 72.453126-40.628906h.910156c12.617187 0 22.878906-10.265625 22.878906-22.878906 0-12.617188-10.265625-22.882813-22.882812-22.882813zm-163.746094-274.785156h-34.652344c-2.945312-10.925781 3.992188-20.699219 15.75-21.828125 13.125-1.261719 22.207031 9.289062 18.902344 21.828125zm-24.308594-98c-3.773438 14.253906-8.660156 39.316406-4.671875 63.128906-14.453125 5.09375-23.316406 18.980469-20.96875 34.871094h-19.640625c4.632812-18.789063-4.410156-37.488281-22.167969-47.039063 16.742188-21.984374 40.679688-44.566406 67.449219-50.960937zm-116.621094 77.414063c5.046875-15.394532 21.085938-20.847657 36.316406-15.726563 16.589844 5.582031 25.378907 20.890625 19.3125 36.3125h-54.582031c-2.855469-6.527344-3.261719-13.839844-1.046875-20.585937zm-78.914062 126.203124c30.03125 0 33.371094-21.121093 50.15625-21.121093 16.683594 0 20.316406 21.121093 50.152344 21.121093 30.027343 0 33.371093-21.121093 50.152343-21.121093 16.683594 0 20.230469 21.121093 50.15625 21.121093 30.027344 0 33.375-21.121093 50.15625-21.121093 16.683594 0 20.230469 21.121093 50.164063 21.121093 16.515625 0 27.210937-6.765624 35.789062-12.4375l.003906 50.953126h-41.535156c-9.917968 0-9.933594 15 0 15h41.535156v43.746093h-372.519531l.003907-43.746093h300.609374c9.917969 0 9.929688-15 0-15h-300.609374v-50.769532c8.757812 5.628906 19.65625 12.253906 35.785156 12.253906zm-35.789063 112.261719h372.523438v56.90625h-372.523438zm346.019531 128.300781h-321.605468c-21.222656 0-40.980469-9.570312-54.105469-25.632812h429.816406c-13.125 16.0625-32.882812 25.632812-54.105469 25.632812zm73.359376-40.632812h-466.234376c-10.433593 0-10.421874-15.761719 0-15.761719h466.234376c10.433593 0 10.417968 15.761719 0 15.761719zm0 0"/></svg>