<svg height="512" viewBox="0 0 512 512" width="512" xmlns="http://www.w3.org/2000/svg"><g id="Flat"><path d="m264 72h-16v-16a25.269 25.269 0 0 0 -17.3-24l-1.229-.409 5.056-15.18 1.231.41a41.248 41.248 0 0 1 28.242 39.179z" fill="#e64c3f"/><path d="m376 32-3.73 13.42-5.41 19.48-8.53 30.7-5.44 19.59-16.89 60.81h-32l11.96-45.45 5.12-19.46 8.12-30.84 5.09-19.35 9.71-36.9z" fill="#e0e0de"/><path d="m372.27 45.42-5.41 19.48-37.66 15.35 5.09-19.35z" fill="#f35244"/><path d="m358.33 95.6-5.44 19.59-36.93 15.36 5.12-19.46z" fill="#f35244"/><path d="m352 176v10.97c0 2.84-.07 5.67-.23 8.5a164.533 164.533 0 0 1 -9.69 47.81l-12.16 33.44a164.83 164.83 0 0 0 -9.92 56.31v4.07a164.782 164.782 0 0 1 -17.4 73.69l-14.6 29.21h-64l-17.8-40.04a164.954 164.954 0 0 1 -14.2-66.93 164.83 164.83 0 0 0 -9.92-56.31l-12.16-33.44a164.83 164.83 0 0 1 -9.92-56.31v-10.97z" fill="#92563a"/><path d="m351.77 195.47a164.533 164.533 0 0 1 -9.69 47.81l-12.16 33.44a164.83 164.83 0 0 0 -9.92 56.31v4.07a164.782 164.782 0 0 1 -17.4 73.69l-14.6 29.21h-64l-17.8-40.04a164.632 164.632 0 0 1 -9.2-26.65c61.77-41.26 115.3-99.98 154.77-177.84z" fill="#875036"/><path d="m320 208a41.019 41.019 0 0 0 -32.6 15.951 39.644 39.644 0 0 0 -3.419-4.069 38.878 38.878 0 0 0 -55.954 0 39.806 39.806 0 0 0 -3.411 4.058 41.07 41.07 0 0 0 -32.616-15.94c-.193 0-.387 0-.58 0a7.666 7.666 0 0 0 -7.269 9.59l.167.651a7.757 7.757 0 0 0 7.621 5.759h.061a25.115 25.115 0 0 1 25.138 23.427c0 .28 0 .558.009.838l6.858 192.02 15.99-.57-6.858-192.021v-.01h.042c-.01-.28-.035-.555-.051-.832a22.873 22.873 0 0 1 39.662-15.513 23.567 23.567 0 0 1 6.053 16.9l-6.838 191.479 15.99.57 6.858-192.02a25.073 25.073 0 0 1 25.147-24.268 24.09 24.09 0 0 1 17.047 7.114 8.075 8.075 0 0 0 9.784 1.4 7.99 7.99 0 0 0 1.739-12.5 40.14 40.14 0 0 0 -28.57-12.014z" fill="#78462f"/><path d="m333.3 176a28 28 0 0 0 -24.015-39.968 28.007 28.007 0 0 0 -25.285-40.032h-56a28.007 28.007 0 0 0 -25.287 40.032 28 28 0 0 0 -24.013 39.968z" fill="#f2dec2"/><path d="m309.287 136.032a28.007 28.007 0 0 0 -25.287-40.032h-40a28.007 28.007 0 0 1 25.287 40.032 28 28 0 0 1 24.013 39.968h40a28 28 0 0 0 -24.015-39.968z" fill="#ead7bc"/><circle cx="256" cy="80" fill="#f35244" r="24"/><rect fill="#e5d2b8" height="16" rx="8" width="80" x="232" y="128"/><path d="m328 488h-144a42.388 42.388 0 0 1 20.58-36.348l19.42-11.652h64l19.42 11.652a42.388 42.388 0 0 1 20.58 36.348z" fill="#92563a"/><rect fill="#78462f" height="16" rx="8" width="80" x="216" y="432"/></g></svg>